<svg xmlns="http://www.w3.org/2000/svg" viewBox="0 0 191.32 191.32"><defs><style>.cls-1{fill:#1d1d1b;}.cls-2{fill:none;stroke:#1d1d1b;stroke-miterlimit:10;}</style></defs><g id="Layer_2" data-name="Layer 2"><g id="Layer_1-2" data-name="Layer 1"><path class="cls-1" d="M190.82,95.66c0,8.19-8.27,15.19-10.29,22.74-2.09,7.82,1.51,18-2.45,24.85s-14.67,8.89-20.31,14.52-7.58,16.3-14.52,20.31-17,.36-24.85,2.45c-7.55,2-14.55,10.29-22.74,10.29s-15.19-8.27-22.74-10.29c-7.82-2.09-18,1.51-24.85-2.45s-8.89-14.67-14.52-20.31-16.3-7.58-20.31-14.52-.36-17-2.45-24.85C8.77,110.85.5,103.85.5,95.66S8.77,80.47,10.79,72.92c2.09-7.82-1.51-18,2.45-24.85s14.67-8.89,20.31-14.52,7.58-16.3,14.52-20.31,17-.36,24.85-2.45C80.47,8.77,87.47.5,95.66.5s15.19,8.27,22.74,10.29c7.82,2.09,18-1.51,24.85,2.45s8.89,14.67,14.52,20.31,16.3,7.58,20.31,14.52.36,17,2.45,24.85C182.55,80.47,190.82,87.47,190.82,95.66Z"/><path class="cls-2" d="M190.82,95.66c0,8.19-8.27,15.19-10.29,22.74-2.09,7.82,1.51,18-2.45,24.85s-14.67,8.89-20.31,14.52-7.58,16.3-14.52,20.31-17,.36-24.85,2.45c-7.55,2-14.55,10.29-22.74,10.29s-15.19-8.27-22.74-10.29c-7.82-2.09-18,1.51-24.85-2.45s-8.89-14.67-14.52-20.31-16.3-7.58-20.31-14.52-.36-17-2.45-24.85C8.77,110.85.5,103.85.5,95.66S8.77,80.47,10.79,72.92c2.09-7.82-1.51-18,2.45-24.85s14.67-8.89,20.31-14.52,7.58-16.3,14.52-20.31,17-.36,24.85-2.45C80.47,8.77,87.47.5,95.66.5s15.19,8.27,22.74,10.29c7.82,2.09,18-1.51,24.85,2.45s8.89,14.67,14.52,20.31,16.3,7.58,20.31,14.52.36,17,2.45,24.85C182.55,80.47,190.82,87.47,190.82,95.66Z"/></g></g></svg>