<svg xmlns="http://www.w3.org/2000/svg" viewBox="0 0 195.88 185.21"><defs><style>.cls-1{fill:none;stroke:#1d1d1b;stroke-miterlimit:10;stroke-width:3px;}</style></defs><g id="Layer_2" data-name="Layer 2"><g id="Layer_1-2" data-name="Layer 1"><path class="cls-1" d="M194.38,91.19c.12,8.06-8.21,15-10.27,22.39-2.11,7.63,1.45,17.8-2.65,24.48s-14.8,8.18-20.56,13.6-7.73,16-14.7,19.77c-6.79,3.73-16.85-.18-24.59,1.84-7.44,1.93-14.27,10.32-22.34,10.43s-15.14-8.06-22.63-9.78c-7.8-1.78-17.74,2.41-24.63-1.11-7.08-3.62-9.46-14.16-15.28-19.33s-16.66-6.44-20.95-13-1-16.82-3.36-24.39c-2.28-7.38-10.8-14-10.92-22.08S9.71,79.07,11.77,71.63c2.11-7.64-1.45-17.8,2.65-24.48S29.22,39,35,33.54,42.71,17.6,49.68,13.77c6.79-3.72,16.85.19,24.59-1.83C81.71,10,88.54,1.62,96.61,1.5s15.14,8.07,22.63,9.78c7.8,1.79,17.73-2.41,24.63,1.11C151,16,153.33,26.56,159.15,31.73s16.66,6.43,20.95,13,1,16.83,3.36,24.4C185.73,76.49,194.26,83.13,194.38,91.19Z"/></g></g></svg>