<svg width="208" height="208" viewBox="0 0 208 208" fill="none" xmlns="http://www.w3.org/2000/svg">
<g clip-path="url(#clip0_63_2)">
<path d="M205.51 119.68C204.11 128.45 194.05 134.53 190.59 142.28C187.01 150.28 189.13 161.82 183.71 168.48C178.29 175.14 166.47 175.48 159.47 180.57C152.47 185.66 148.58 196.74 140.47 199.86C132.36 202.98 122.16 197.35 113.47 198.26C105.03 199.15 96.13 206.82 87.35 205.44C78.57 204.06 72.44 194.01 64.69 190.56C56.69 187 45.16 189.14 38.51 183.74C31.86 178.34 31.51 166.52 26.42 159.53C21.33 152.54 10.27 148.64 7.15997 140.53C4.04997 132.42 9.68997 122.24 8.79997 113.53C7.92997 105.1 0.259964 96.2 1.66996 87.43C3.07996 78.66 13.13 72.58 16.59 64.83C20.17 56.83 18.05 45.29 23.46 38.63C28.87 31.97 40.71 31.63 47.7 26.54C54.69 21.45 58.6 10.37 66.7 7.25C74.8 4.13 85.01 9.76 93.7 8.85C102.14 7.96 111.04 0.290005 119.82 1.67C128.6 3.05 134.73 13.1 142.51 16.54C150.51 20.1 162.04 17.96 168.69 23.36C175.34 28.76 175.69 40.58 180.78 47.57C185.87 54.56 196.93 58.46 200.04 66.57C203.15 74.68 197.51 84.86 198.4 93.57C199.24 102.01 206.9 110.91 205.51 119.68Z" stroke="#ED6A6A" stroke-width="3" stroke-miterlimit="10"/>
<path d="M198.51 118.47C197.15 126.94 187.26 132.85 184.12 140.4C180.84 148.26 183.52 159.4 178.62 166.06C173.62 172.87 162.09 173.52 155.62 178.74C149.15 183.96 146.02 195.17 138.42 198.54C130.82 201.91 120.57 196.71 112.23 197.84C104.09 198.95 95.61 206.74 87.15 205.41C78.69 204.08 73.05 194.08 65.66 190.54C58.08 186.91 46.78 188.74 40.57 183.19C34.36 177.64 34.9401 166.19 30.3801 159.08C25.8201 151.97 15.26 148.01 12.61 139.94C10.04 132.15 16.08 122.39 15.44 113.94C14.83 105.82 7.30005 97.12 8.66005 88.66C10.02 80.2 19.91 74.28 23.05 66.73C26.33 58.87 23.65 47.73 28.54 41.08C33.54 34.26 45.08 33.61 51.54 28.39C58 23.17 61.14 11.97 68.75 8.59C76.36 5.21 86.6 10.42 94.93 9.29C103.08 8.19 111.56 0.389997 120.02 1.72C128.48 3.05 134.07 13.01 141.51 16.56C149.09 20.19 160.39 18.36 166.59 23.92C172.79 29.48 172.23 40.92 176.78 48.02C181.33 55.12 191.96 59.13 194.61 67.16C197.18 74.95 191.14 84.71 191.77 93.16C192.34 101.31 199.87 110.01 198.51 118.47Z" stroke="#ED6A6A" stroke-width="3" stroke-miterlimit="10"/>
<path d="M191.51 117.25C190.19 125.43 180.45 131.17 177.6 138.51C174.6 146.21 177.82 157.03 173.42 163.58C168.83 170.42 157.59 171.46 151.76 176.79C145.69 182.34 143.51 193.43 136.45 197.06C129.21 200.78 119.05 196 111.13 197.37C103.21 198.74 95.2499 206.65 87.1299 205.37C79.0099 204.09 73.7999 194.12 66.7699 190.46C59.7399 186.8 48.5499 188.22 42.8299 182.46C37.2499 176.86 38.6299 165.67 34.6099 158.53C30.7499 151.68 20.4099 147.21 18.2099 139.29C16.0999 131.73 22.5599 122.51 22.1499 114.29C21.7699 106.47 14.3499 97.98 15.6699 89.83C16.9899 81.68 26.6699 75.91 29.5699 68.57C32.5699 60.87 29.3599 50.06 33.7599 43.5C38.3499 36.66 49.5899 35.62 55.4199 30.29C61.5099 24.76 63.6499 13.67 70.6999 10.01C77.9499 6.29 88.1099 11.08 96.0299 9.7C103.95 8.32 111.91 0.420002 120.03 1.7C128.15 2.98 133.39 13.01 140.42 16.62C147.45 20.23 158.63 18.87 164.36 24.62C170.09 30.37 168.56 41.41 172.58 48.55C176.44 55.4 186.77 59.87 188.98 67.79C191.09 75.35 184.63 84.57 185.04 92.79C185.42 100.61 192.84 109.1 191.51 117.25Z" stroke="#ED6A6A" stroke-width="3" stroke-miterlimit="10"/>
</g>
<defs>
<clipPath id="clip0_63_2">
<rect width="207.18" height="207.11" fill="white"/>
</clipPath>
</defs>
</svg>
